<?xml version="1.0" standalone="no"?>
<!DOCTYPE svg PUBLIC "-//W3C//DTD SVG 20010904//EN"
 "http://www.w3.org/TR/2001/REC-SVG-20010904/DTD/svg10.dtd">
<svg version="1.0" xmlns="http://www.w3.org/2000/svg"
 width="486.000000pt" height="856.000000pt" viewBox="0 0 486.000000 856.000000"
 preserveAspectRatio="xMidYMid meet">

<g transform="translate(0.000000,856.000000) scale(0.100000,-0.100000)"
fill="#000000" stroke="none">
<path d="M0 4280 l0 -4280 2430 0 2430 0 0 4280 0 4280 -2430 0 -2430 0 0
-4280z m864 3974 c21 -20 20 -83 -1 -106 -20 -22 -56 -23 -73 -3 -16 19 -5 34
12 17 18 -18 36 -15 48 8 9 16 8 18 -5 14 -8 -4 -26 -3 -40 0 -19 5 -25 13
-25 34 0 15 5 33 12 40 17 17 54 15 72 -4z m188 -36 c2 -29 2 -61 0 -70 -5
-22 -32 -24 -32 -3 0 10 -10 15 -30 15 -37 0 -37 11 -5 67 37 62 62 59 67 -9z
m88 -18 c0 -40 -4 -70 -10 -70 -5 0 -10 25 -10 55 0 56 -6 65 -28 43 -9 -9
-12 -9 -12 1 0 16 29 40 48 41 8 0 12 -20 12 -70z m2540 0 c0 -63 -2 -70 -20
-70 -18 0 -20 7 -20 70 0 63 2 70 20 70 18 0 20 -7 20 -70z m269 49 c24 -14
31 -23 23 -31 -8 -8 -21 -6 -45 6 -19 9 -43 16 -52 16 -9 0 -33 -7 -52 -16
-24 -12 -37 -14 -45 -6 -17 17 49 52 97 52 23 0 55 -9 74 -21z m-3019 -14 c0
-8 -4 -15 -9 -15 -13 0 -22 16 -14 24 11 11 23 6 23 -9z m2688 -48 c3 -52 1
-57 -18 -57 -18 0 -20 6 -20 53 0 30 3 57 7 61 17 16 28 -5 31 -57z m720 54
c9 -5 12 -24 10 -52 l-3 -44 -122 -3 -123 -3 0 49 c0 27 3 52 7 55 9 10 216 8
231 -2z m-413 -34 c28 -21 11 -38 -25 -24 -23 9 -35 9 -49 0 -15 -10 -22 -9
-31 2 -24 29 67 49 105 22z m-367 -40 c3 -32 0 -37 -17 -37 -17 0 -21 6 -21
33 0 61 33 63 38 4z m-2628 -2 c0 -8 -4 -15 -9 -15 -13 0 -22 16 -14 24 11 11
23 6 23 -9z m2568 -13 c3 -17 -2 -22 -17 -22 -14 0 -21 6 -21 18 0 38 33 41
38 4z m412 8 c0 -4 -7 -13 -16 -20 -12 -11 -18 -10 -32 4 -14 14 -15 18 -3 25
15 9 51 3 51 -9z m443 -343 c121 -51 178 -195 126 -317 -45 -105 -181 -165
-290 -129 -50 17 -115 69 -139 111 -63 111 -14 269 102 327 51 25 151 29 201
8z m-3660 -157 c-5 -35 -2 -44 31 -81 24 -26 36 -48 34 -62 -3 -21 -9 -22
-115 -25 -104 -2 -113 -1 -123 18 -9 17 -4 27 31 65 38 41 41 49 36 85 l-5 40
58 0 58 0 -5 -40z m1565 -8 c17 -23 -2 -29 -35 -11 -31 17 -57 2 -61 -35 -4
-35 15 -58 46 -54 28 3 43 28 18 28 -9 0 -16 7 -16 15 0 10 10 15 30 15 29 0
30 -2 30 -45 0 -43 -11 -58 -26 -34 -4 8 -9 8 -17 0 -6 -6 -21 -11 -34 -11
-63 0 -88 99 -36 140 32 25 79 21 101 -8z m432 -37 c33 -97 33 -95 15 -95 -9
0 -19 9 -22 20 -4 14 -14 20 -35 20 -21 0 -31 -6 -35 -20 -3 -11 -12 -20 -19
-20 -18 0 -18 0 7 82 19 64 22 69 46 66 22 -2 29 -12 43 -53z m70 -20 c0 -60
-3 -75 -15 -75 -12 0 -15 15 -15 75 0 60 3 75 15 75 12 0 15 -15 15 -75z
m-370 16 c17 -33 11 -41 -30 -41 -23 0 -40 -5 -40 -11 0 -7 12 -9 36 -4 38 7
44 -8 12 -28 -45 -29 -93 26 -69 79 14 31 75 35 91 5z m122 6 c4 -7 8 -31 8
-54 0 -32 -4 -43 -15 -43 -11 0 -15 11 -15 39 0 22 -5 43 -10 46 -19 12 -40
-16 -40 -52 0 -56 -25 -35 -28 24 l-3 50 48 1 c27 1 50 -4 55 -11z m2288
-1952 l0 -1575 -2345 0 -2345 0 0 1575 0 1575 2345 0 2345 0 0 -1575z m-3070
-2056 c0 -14 -7 -19 -25 -19 -18 0 -25 5 -25 19 0 11 6 21 13 24 20 7 37 -4
37 -24z m-1123 -1 c13 -12 23 -27 23 -35 0 -18 -35 -17 -50 2 -15 18 -70 20
-94 2 -9 -7 -20 -31 -23 -54 -5 -35 -2 -45 20 -67 30 -30 53 -33 85 -10 30 21
28 44 -3 44 -18 0 -25 5 -25 20 0 17 7 20 50 20 l50 0 0 -65 c0 -58 -2 -65
-20 -65 -12 0 -20 7 -20 17 0 14 -2 14 -21 -3 -13 -12 -35 -19 -61 -19 -33 0
-45 6 -69 33 -24 27 -29 41 -29 86 0 46 4 59 29 85 25 27 36 31 82 31 40 0 58
-5 76 -22z m1942 -80 c19 -57 36 -109 38 -115 3 -8 -4 -13 -20 -13 -20 0 -27
6 -32 30 -6 28 -9 30 -55 30 -45 0 -48 -2 -53 -30 -5 -23 -12 -30 -31 -30
l-24 0 34 108 c18 59 34 110 34 115 0 4 17 7 38 7 l38 0 33 -102z m101 -13 c0
-108 -1 -115 -20 -115 -19 0 -20 7 -20 115 0 108 1 115 20 115 19 0 20 -7 20
-115z m-1038 73 c2 -15 11 -24 26 -26 12 -2 22 -10 22 -17 0 -7 -10 -15 -22
-17 -19 -2 -24 -10 -26 -45 -3 -38 -1 -43 22 -49 38 -9 33 -34 -7 -34 -46 0
-57 15 -57 77 0 40 -4 53 -15 53 -8 0 -15 7 -15 15 0 8 7 15 15 15 9 0 15 9
15 25 0 33 37 35 42 3z m-794 -54 c12 -14 22 -34 22 -45 0 -17 -7 -19 -66 -19
-67 0 -79 -10 -41 -34 12 -8 22 -7 37 2 22 14 60 16 60 4 0 -12 -30 -37 -54
-46 -26 -9 -84 11 -96 34 -6 10 -10 34 -10 53 0 27 7 41 32 62 38 32 81 29
116 -11z m183 17 c19 -15 24 -30 27 -85 4 -66 4 -66 -22 -66 -25 0 -26 2 -26
60 0 47 -4 62 -16 67 -32 12 -49 -11 -52 -71 -3 -52 -5 -56 -27 -56 -24 0 -25
2 -25 80 0 73 2 80 20 80 11 0 20 -5 20 -11 0 -5 10 -3 22 5 29 21 51 20 79
-3z m178 4 c30 -15 41 -33 41 -66 0 -17 -8 -19 -60 -19 -46 0 -60 -3 -60 -15
0 -19 48 -31 63 -16 13 13 47 15 47 2 0 -5 -12 -19 -27 -31 -72 -57 -170 43
-117 118 28 41 69 50 113 27z m171 -10 c0 -17 -5 -25 -18 -25 -30 0 -42 -21
-42 -72 0 -41 -3 -48 -20 -48 -18 0 -20 7 -20 80 0 73 2 80 20 80 11 0 20 -5
20 -11 0 -5 10 -3 22 5 31 22 38 20 38 -9z m157 4 c19 -17 18 -149 -1 -149 -8
0 -17 4 -21 9 -3 6 -17 3 -33 -6 -39 -22 -82 -4 -82 35 0 39 17 52 68 52 36 0
43 3 40 18 -3 19 -58 31 -58 13 0 -6 -11 -11 -25 -11 -14 0 -25 4 -25 8 0 11
30 37 50 45 20 8 70 0 87 -14z m401 -15 c47 -53 9 -138 -61 -138 -84 0 -119
95 -55 149 38 32 81 29 116 -11z m187 11 c21 -20 25 -34 25 -85 0 -57 -1 -60
-25 -60 -24 0 -25 3 -25 60 0 47 -4 62 -16 67 -32 12 -49 -11 -52 -71 -3 -52
-5 -56 -27 -56 -24 0 -25 2 -25 81 l0 82 28 -6 c15 -2 36 -1 47 3 33 14 45 11
70 -15z m172 4 c26 -22 14 -31 -32 -25 -30 5 -45 4 -45 -4 0 -6 8 -13 18 -16
86 -28 101 -53 57 -92 -32 -27 -74 -25 -107 5 -25 22 -23 33 7 33 14 0 25 -4
25 -10 0 -5 11 -10 25 -10 40 0 29 24 -17 40 -34 12 -44 20 -46 42 -6 49 70
74 115 37z m-537 -69 c0 -79 0 -80 -25 -80 -25 0 -25 1 -25 80 0 79 0 80 25
80 25 0 25 -1 25 -80z m-1269 -417 l21 -48 20 48 c30 69 48 62 48 -18 0 -37
-4 -65 -10 -65 -5 0 -10 24 -10 53 l0 52 -20 -42 c-10 -24 -24 -43 -29 -43 -6
0 -19 17 -28 38 l-17 37 -4 -47 c-5 -71 -22 -58 -22 17 0 81 19 87 51 18z
m529 32 c15 -18 7 -19 -19 -3 -15 9 -25 9 -45 0 -51 -23 -23 -111 31 -97 16 4
22 2 18 -5 -12 -19 -63 -11 -79 12 -34 48 -7 108 48 108 19 0 39 -7 46 -15z
m372 -45 c10 -30 16 -59 14 -65 -3 -5 -8 0 -11 13 -10 30 -64 32 -72 2 -3 -11
-10 -20 -15 -20 -6 0 -8 6 -5 13 2 6 13 36 23 65 24 66 41 64 66 -8z m58 56
c0 -3 -4 -8 -10 -11 -5 -3 -10 -1 -10 4 0 6 5 11 10 11 6 0 10 -2 10 -4z
m1090 -60 l0 -63 -36 1 c-43 1 -60 21 -50 60 6 25 11 28 41 24 31 -4 35 -1 35
19 0 13 2 23 5 23 3 0 5 -29 5 -64z m152 4 c10 -30 16 -59 14 -65 -3 -5 -8 0
-11 13 -10 30 -61 31 -70 2 -3 -11 -10 -20 -15 -20 -4 0 1 29 13 65 26 80 43
81 69 5z m238 50 c0 -5 -4 -10 -10 -10 -5 0 -10 5 -10 10 0 6 5 10 10 10 6 0
10 -4 10 -10z m510 6 c0 -3 -4 -8 -10 -11 -5 -3 -10 -1 -10 4 0 6 5 11 10 11
6 0 10 -2 10 -4z m530 0 c0 -3 -4 -8 -10 -11 -5 -3 -10 -1 -10 4 0 6 5 11 10
11 6 0 10 -2 10 -4z m-3122 -37 c15 -1 15 -2 0 -6 -12 -3 -18 -14 -18 -33 0
-17 7 -34 18 -40 15 -10 15 -10 -3 -8 -14 2 -21 12 -23 33 -2 17 -7 34 -12 39
-5 5 -3 17 3 28 10 15 13 16 15 3 2 -8 11 -16 20 -16z m1151 -7 c-14 -6 -10
-70 4 -76 6 -3 3 -5 -8 -3 -15 2 -21 11 -23 37 -2 19 -9 38 -15 42 -9 6 -9 8
1 8 6 0 12 8 12 17 0 15 2 14 19 -3 10 -10 14 -20 10 -22z m325 6 c8 -5 7 -8
-1 -8 -8 0 -13 -14 -13 -34 0 -19 6 -37 13 -40 6 -3 3 -5 -8 -3 -15 2 -21 12
-25 42 -6 42 9 94 18 65 3 -8 10 -18 16 -22z m754 1 c15 -1 15 -2 0 -6 -12 -3
-18 -14 -18 -33 0 -17 7 -34 18 -40 15 -10 15 -10 -3 -8 -14 2 -21 12 -23 33
-2 17 -7 34 -12 39 -5 5 -3 17 3 28 10 15 13 16 15 3 2 -8 11 -16 20 -16z
m265 -7 c-19 -5 -16 -59 5 -72 15 -10 15 -10 -3 -8 -15 2 -21 12 -23 38 -2 19
-9 38 -15 42 -9 6 -9 8 1 8 6 0 12 7 12 15 0 12 3 12 18 -2 13 -13 14 -19 5
-21z m511 6 c8 -5 7 -8 -1 -8 -8 0 -13 -14 -13 -34 0 -19 6 -37 13 -40 6 -3 3
-5 -8 -3 -15 2 -21 12 -25 42 -6 42 9 94 18 65 3 -8 10 -18 16 -22z m59 -11
c-19 -12 -16 -54 5 -67 15 -10 15 -10 -3 -8 -15 2 -21 12 -23 38 -2 19 -9 38
-15 42 -9 6 -9 8 1 8 6 0 12 7 12 15 0 12 3 12 18 -2 14 -14 15 -20 5 -26z
m-3233 -2 c18 -21 3 -35 -38 -35 -34 0 -35 -1 -19 -17 15 -15 20 -16 38 -5 18
11 20 11 17 0 -6 -18 -59 -16 -71 3 -5 9 -7 28 -3 42 5 21 12 27 35 27 16 0
34 -7 41 -15z m108 -12 c3 -20 -1 -23 -32 -23 -20 0 -36 -5 -36 -10 0 -18 29
-23 47 -9 14 12 16 12 11 -1 -3 -9 -17 -15 -34 -15 -35 0 -56 43 -34 70 20 25
74 16 78 -12z m350 0 c3 -20 -1 -23 -32 -23 -20 0 -36 -5 -36 -10 0 -17 29
-23 45 -10 9 7 18 11 20 8 12 -11 -26 -30 -49 -24 -30 7 -41 37 -26 66 16 30
74 25 78 -7z m106 5 c9 -34 7 -68 -3 -68 -6 0 -11 17 -13 38 -2 29 -7 37 -23
37 -16 0 -21 -8 -23 -37 -4 -52 -22 -48 -22 5 0 42 0 42 39 45 33 2 39 -1 45
-20z m206 -23 c0 -25 -4 -45 -10 -45 -5 0 -10 20 -10 45 0 25 5 45 10 45 6 0
10 -20 10 -45z m121 15 c14 -38 22 -38 37 2 6 17 14 29 17 26 8 -7 -46 -128
-57 -128 -5 0 -4 9 2 20 8 16 6 30 -9 65 -11 25 -15 45 -10 45 6 0 15 -13 20
-30z m147 18 c28 -28 7 -78 -33 -78 -27 0 -45 18 -45 45 0 27 18 45 45 45 12
0 26 -5 33 -12z m58 -58 c20 -17 42 3 47 43 3 25 4 21 5 -14 l2 -46 -37 1
c-38 1 -38 1 -39 46 -1 28 0 33 3 13 2 -17 11 -37 19 -43z m111 55 c-10 -7
-17 -26 -17 -44 0 -17 -4 -31 -10 -31 -5 0 -10 20 -10 44 0 41 2 44 27 44 24
0 25 -2 10 -13z m176 0 c-12 -9 -23 -29 -26 -48 -3 -26 -4 -23 -5 13 -2 43 0
46 25 48 28 2 28 2 6 -13z m47 -19 c0 -38 10 -49 34 -40 10 4 16 18 16 40 0
19 5 34 10 34 6 0 10 -20 10 -43 0 -43 0 -44 -37 -45 -20 -1 -41 4 -45 11 -11
18 -10 77 2 77 6 0 10 -15 10 -34z m150 25 c0 -4 -11 -6 -25 -3 -36 6 -31 -14
6 -27 21 -7 30 -16 27 -28 -4 -23 -51 -29 -68 -9 -8 10 -8 16 -2 16 6 0 14 -4
17 -10 9 -15 35 -12 35 4 0 8 -11 17 -25 20 -38 10 -34 46 5 46 17 0 30 -4 30
-9z m168 -18 c3 -20 -1 -23 -32 -23 -20 0 -36 -5 -36 -10 0 -17 27 -22 52 -10
22 12 22 11 6 -5 -36 -38 -92 10 -67 57 15 28 73 21 77 -9z m367 17 c4 -7 -2
-9 -19 -4 -34 8 -34 -9 0 -25 35 -16 29 -46 -10 -46 -16 0 -31 6 -34 13 -3 11
-1 11 17 1 16 -11 23 -11 33 -1 9 9 5 14 -20 23 -30 10 -40 27 -25 42 10 11
51 8 58 -3z m90 0 c4 -7 -2 -9 -19 -4 -34 8 -34 -9 0 -25 35 -16 29 -46 -10
-46 -17 0 -31 6 -34 15 -4 12 -2 13 9 3 17 -17 39 -16 39 1 0 8 -11 17 -25 20
-24 6 -33 25 -18 39 10 11 51 8 58 -3z m45 -35 c0 -25 -4 -45 -10 -45 -5 0
-10 20 -10 45 0 25 5 45 10 45 6 0 10 -20 10 -45z m85 35 c4 -7 -2 -9 -19 -4
-34 8 -34 -9 0 -25 35 -16 29 -46 -10 -46 -16 0 -31 6 -34 13 -3 11 -1 11 17
1 16 -11 23 -11 33 -1 9 9 5 14 -20 23 -30 10 -40 27 -25 42 10 11 51 8 58 -3z
m163 -36 l3 -41 -38 1 c-31 1 -38 5 -38 21 0 14 8 21 29 25 34 6 33 25 -1 25
-13 -1 -23 3 -23 8 0 4 15 7 33 5 30 -3 32 -6 35 -44z m104 33 c11 -17 10 -77
-1 -77 -6 0 -11 17 -13 38 -2 29 -7 37 -23 37 -16 0 -21 -8 -23 -37 -4 -52
-22 -48 -22 5 0 43 0 44 37 45 20 1 41 -4 45 -11z m145 -54 c-2 -16 -4 -5 -4
22 0 28 2 40 4 28 2 -13 2 -35 0 -50z m109 17 l2 -45 -7 40 c-5 31 -11 41 -28
43 -18 3 -23 -4 -31 -40 l-10 -43 -1 46 -1 46 38 -1 c37 -1 37 -1 38 -46z
m145 23 c-6 -21 -15 -29 -37 -32 l-29 -3 35 -13 c19 -6 35 -18 35 -25 0 -21
-30 -34 -59 -26 -25 6 -27 10 -21 34 4 15 7 38 6 51 -2 34 6 41 44 41 31 0 33
-2 26 -27z m109 12 c18 -21 3 -35 -38 -35 -34 0 -35 -1 -19 -17 15 -15 20 -16
38 -5 18 11 20 11 17 0 -6 -18 -59 -16 -71 3 -5 9 -7 28 -3 42 5 21 12 27 35
27 16 0 34 -7 41 -15z m167 -52 c-2 -16 -4 -5 -4 22 0 28 2 40 4 28 2 -13 2
-35 0 -50z m109 17 l2 -45 -7 40 c-5 31 -11 41 -28 43 -18 3 -23 -4 -31 -40
l-10 -43 -1 46 -1 46 38 -1 c37 -1 37 -1 38 -46z m107 33 c-10 -30 -24 -43
-47 -44 -15 -1 -13 -4 12 -11 57 -19 36 -69 -24 -54 -23 6 -25 10 -19 34 4 15
7 38 6 51 -2 34 6 41 44 41 28 0 33 -3 28 -17z m-3143 -40 c0 -28 -3 -34 -10
-23 -5 8 -7 23 -4 32 3 11 -2 18 -18 21 -20 4 -20 4 5 6 25 1 27 -2 27 -36z
m453 -33 c-3 -11 -9 -20 -13 -20 -5 0 -6 9 -3 20 3 11 9 20 13 20 5 0 6 -9 3
-20z m-1023 -172 l0 -41 27 24 26 24 -16 -25 c-16 -23 -16 -25 5 -47 27 -29
12 -30 -19 -1 l-23 21 0 -21 c0 -12 -4 -22 -10 -22 -6 0 -10 28 -10 65 0 37 4
65 10 65 6 0 10 -19 10 -42z m1070 18 c0 -19 4 -22 25 -18 31 5 55 -13 55 -43
0 -31 -20 -45 -63 -43 l-37 1 0 64 c0 35 4 63 10 63 6 0 10 -11 10 -24z m1090
14 c0 -5 -4 -10 -10 -10 -5 0 -10 5 -10 10 0 6 5 10 10 10 6 0 10 -4 10 -10z
m-744 -25 c9 -8 11 -15 5 -15 -15 0 -14 -67 2 -74 6 -3 3 -5 -8 -3 -15 2 -21
11 -23 40 -2 20 -8 37 -13 37 -5 0 -4 7 3 15 16 18 16 18 34 0z m690 0 c9 -8
11 -15 5 -15 -15 0 -14 -67 2 -74 6 -3 3 -5 -8 -3 -15 2 -21 11 -23 40 -2 20
-8 37 -13 37 -5 0 -4 7 3 15 16 18 16 18 34 0z m-1950 -55 l2 -45 -7 40 c-5
31 -10 40 -26 40 -16 0 -21 -8 -23 -37 -4 -52 -22 -48 -22 5 l0 43 38 -1 37 0
1 -45z m107 29 c5 -9 7 -28 3 -43 -6 -23 -11 -27 -38 -24 -41 4 -56 28 -40 63
9 20 18 26 39 23 14 -2 30 -10 36 -19z m44 -16 l10 -38 9 34 c13 45 32 51 40
12 8 -39 20 -40 28 -1 3 17 10 30 15 30 13 0 -13 -83 -28 -88 -6 -2 -14 10
-17 27 -9 44 -21 47 -28 6 -9 -49 -31 -44 -43 10 -12 54 1 61 14 8z m301 25
c14 -12 16 -78 2 -78 -5 0 -10 15 -10 34 0 19 -5 38 -10 41 -18 11 -40 -16
-41 -49 -1 -30 -2 -30 -9 7 -8 44 -14 51 -35 44 -9 -4 -15 -19 -15 -42 0 -19
-4 -35 -10 -35 -5 0 -10 20 -10 44 l0 43 63 0 c34 0 68 -4 75 -9z m113 -9 c8
-16 8 -28 0 -46 -9 -20 -17 -24 -44 -21 -27 2 -33 8 -35 31 -2 16 2 35 9 43
17 21 57 17 70 -7z m62 3 c-12 -9 -24 -30 -26 -47 -3 -22 -4 -18 -6 15 -1 43
1 46 27 48 l27 2 -22 -18z m91 12 c9 -3 16 -15 16 -25 0 -15 -7 -19 -36 -19
-24 0 -34 -4 -31 -12 2 -7 18 -12 36 -12 17 1 28 -2 25 -7 -3 -5 -19 -9 -35
-9 -22 0 -32 6 -39 26 -18 47 15 77 64 58z m154 -40 l3 -41 -38 1 c-31 1 -38
5 -38 21 0 14 8 21 28 23 15 2 27 9 27 18 0 16 -26 19 -35 4 -3 -5 -11 -10
-17 -10 -6 0 -6 6 2 16 8 8 25 14 39 12 23 -3 26 -8 29 -44z m223 25 c8 -16 8
-28 0 -46 -9 -20 -17 -24 -44 -21 -27 2 -33 8 -35 31 -2 16 2 35 9 43 17 21
57 17 70 -7z m64 -54 c16 0 21 8 23 38 4 51 22 47 22 -6 l0 -43 -37 1 -38 0
-1 45 -2 45 7 -40 c5 -31 10 -40 26 -40z m257 68 c-6 -2 -9 -9 -6 -14 9 -15
-16 -39 -39 -39 -25 0 -11 -16 18 -22 12 -2 20 -11 20 -23 0 -16 -7 -20 -35
-20 l-35 0 0 50 c-1 63 8 75 54 74 20 0 30 -3 23 -6z m96 -5 c23 -23 13 -38
-24 -38 -24 0 -34 -4 -31 -12 2 -7 16 -13 30 -13 15 1 27 -3 27 -8 0 -15 -63
-3 -73 15 -16 25 7 68 36 68 13 0 28 -5 35 -12z m109 -38 c1 -42 0 -40 -13 18
-5 23 -28 30 -40 10 -4 -6 -11 -25 -15 -42 -6 -28 -7 -27 -8 14 l-1 46 38 -1
c37 0 37 0 39 -45z m101 38 c23 -23 13 -38 -24 -38 -24 0 -34 -4 -31 -12 2 -7
16 -12 31 -11 14 1 24 -2 21 -8 -9 -13 -49 -11 -63 3 -28 28 -7 78 33 78 12 0
26 -5 33 -12z m65 -6 c-12 -10 -24 -30 -26 -47 -3 -22 -4 -18 -5 15 -2 42 0
45 25 47 l27 1 -21 -16z m105 -28 l3 -41 -38 1 c-31 1 -38 5 -38 21 0 14 8 21
28 23 15 2 27 9 27 18 0 16 -26 19 -35 4 -3 -5 -11 -10 -17 -10 -6 0 -6 6 2
16 8 8 25 14 39 12 23 -3 26 -8 29 -44z m112 1 c0 -25 -4 -45 -10 -45 -5 0
-10 20 -10 45 0 25 5 45 10 45 6 0 10 -20 10 -45z m98 33 c16 -16 15 -53 -2
-67 -8 -7 -27 -11 -43 -9 -51 6 -41 88 11 88 12 0 27 -5 34 -12z m108 -38 c1
-28 0 -33 -3 -13 -2 17 -11 37 -19 43 -20 17 -42 -3 -47 -43 -3 -25 -4 -21 -5
14 l-2 46 38 -1 c37 -1 37 -1 38 -46z m89 40 c4 -7 -2 -9 -19 -4 -34 8 -35
-13 -1 -26 37 -14 34 -50 -4 -50 -17 0 -33 5 -36 10 -4 7 2 9 18 5 37 -10 44
14 8 26 -29 10 -39 28 -24 42 10 11 51 8 58 -3z m-23 -1346 c145 -64 270 -123
279 -132 9 -10 57 -107 107 -217 186 -410 176 -392 218 -399 32 -7 58 3 213
75 97 45 235 113 307 150 114 58 167 78 390 143 143 41 296 86 342 99 l82 25
0 -102 0 -103 -227 -126 c-126 -69 -309 -167 -408 -217 l-180 -91 -121 -11
-122 -12 -4 -67 c-3 -57 -8 -74 -34 -106 -63 -79 32 -73 -1190 -73 -1225 0
-1146 -5 -1228 75 -49 47 -91 121 -101 178 -4 21 -12 40 -17 43 -24 15 -673
78 -919 90 l-136 7 -6 171 c-4 94 -3 174 1 178 10 10 220 -14 513 -57 129 -19
325 -47 437 -61 l203 -27 22 20 c37 34 87 55 147 60 l57 5 6 285 c4 193 10
290 18 299 10 12 101 14 550 14 l538 0 263 -116z"/>
<path d="M804 8235 c-4 -9 -2 -21 4 -27 15 -15 44 -1 40 19 -4 23 -36 29 -44
8z"/>
<path d="M998 8210 c-16 -29 -16 -30 2 -30 16 0 20 7 20 30 0 17 -1 30 -2 30
-2 0 -11 -14 -20 -30z"/>
<path d="M4165 7630 c-4 -6 5 -10 19 -10 14 0 26 5 26 10 0 6 -9 10 -19 10
-11 0 -23 -4 -26 -10z"/>
<path d="M4310 7630 c0 -5 11 -10 24 -10 14 0 28 5 31 10 4 6 -7 10 -24 10
-17 0 -31 -4 -31 -10z"/>
<path d="M4170 7576 c0 -43 17 -56 30 -22 11 30 4 56 -16 56 -9 0 -14 -12 -14
-34z"/>
<path d="M4320 7576 c0 -40 12 -53 30 -31 16 19 9 59 -12 63 -14 3 -18 -4 -18
-32z"/>
<path d="M4268 7513 c-37 -6 -36 -20 2 -25 24 -4 30 -1 30 14 0 10 -1 17 -2
17 -2 -1 -15 -4 -30 -6z"/>
<path d="M620 7647 c0 -18 -7 -43 -16 -55 -14 -21 -14 -22 8 -21 41 2 74 14
60 23 -6 4 -12 25 -12 47 0 32 -3 39 -20 39 -16 0 -20 -7 -20 -33z"/>
<path d="M605 7543 c-102 -9 -76 -33 37 -33 75 0 106 12 77 31 -14 9 -37 9
-114 2z"/>
<path d="M2636 7625 c-10 -26 -7 -35 9 -35 17 0 19 18 6 38 -7 11 -10 10 -15
-3z"/>
<path d="M2325 7600 c-4 -6 5 -10 20 -10 15 0 24 4 20 10 -3 6 -12 10 -20 10
-8 0 -17 -4 -20 -10z"/>
<path d="M2271 6411 c-6 -10 -7 -21 -4 -25 11 -11 185 -7 178 4 -3 6 -23 10
-44 10 -22 0 -44 6 -51 15 -18 21 -67 19 -79 -4z m59 -11 c0 -5 -6 -10 -14
-10 -8 0 -18 5 -21 10 -3 6 3 10 14 10 12 0 21 -4 21 -10z"/>
<path d="M2190 6240 l0 -70 140 0 140 0 0 70 0 70 -140 0 -140 0 0 -70z m95
25 c0 -10 -6 -20 -12 -22 -8 -3 -13 5 -13 22 0 17 5 25 13 23 6 -3 12 -13 12
-23z m91 -11 c-5 -13 -10 -14 -18 -6 -6 6 -8 18 -4 28 5 13 10 14 18 6 6 -6 8
-18 4 -28z m-41 -44 c-3 -5 -15 -10 -25 -10 -10 0 -22 5 -25 10 -4 6 7 10 25
10 18 0 29 -4 25 -10z"/>
<path d="M2204 6055 c-7 -26 2 -62 13 -52 10 10 12 67 2 73 -5 2 -11 -7 -15
-21z"/>
<path d="M2423 6040 c0 -45 9 -51 24 -17 7 15 7 29 1 40 -15 28 -25 19 -25
-23z"/>
<path d="M2215 5921 c-3 -11 -14 -22 -23 -24 -10 -3 -7 -5 9 -6 25 -1 39 14
39 40 0 17 -19 9 -25 -10z"/>
<path d="M2410 5931 c0 -23 14 -41 32 -41 18 0 18 1 4 16 -9 8 -16 20 -16 25
0 5 -4 9 -10 9 -5 0 -10 -4 -10 -9z"/>
<path d="M2120 5581 c0 -63 5 -69 83 -87 15 -3 27 -12 27 -19 0 -15 -51 -35
-86 -35 -22 0 -24 -4 -24 -56 0 -48 2 -55 16 -50 22 8 44 -11 44 -39 0 -12
-13 -41 -30 -63 -24 -33 -30 -52 -30 -92 l0 -50 54 0 53 0 -8 48 c-12 58 -3
124 23 177 27 53 46 73 90 96 50 25 88 26 181 5 43 -10 80 -17 82 -15 2 2 5
57 7 122 l3 117 -242 0 -243 0 0 -59z m240 -86 c0 -8 -9 -15 -20 -15 -11 0
-20 7 -20 15 0 8 9 15 20 15 11 0 20 -7 20 -15z m-60 -74 c0 -8 -64 -51 -76
-51 -2 0 -4 7 -4 15 0 8 12 21 28 29 31 17 52 20 52 7z"/>
<path d="M2745 5266 c30 -71 9 -224 -34 -250 -22 -14 -10 -26 24 -26 31 0 37
5 56 42 24 47 35 134 25 201 -6 36 -12 47 -29 52 -61 18 -58 20 -42 -19z"/>
<path d="M2577 5212 c-24 -26 -21 -68 5 -86 29 -20 34 -20 58 4 26 26 26 76 1
90 -28 15 -46 12 -64 -8z"/>
<path d="M3080 5195 c16 -43 12 -117 -10 -160 -11 -22 -20 -41 -20 -42 0 -2
15 -3 33 -3 27 0 36 6 47 28 15 32 25 162 13 178 -4 6 -23 15 -41 19 -31 6
-32 6 -22 -20z"/>
<path d="M2978 5169 c-45 -26 -5 -104 41 -80 32 18 39 51 15 75 -18 18 -32 20
-56 5z"/>
<path d="M3329 5142 c17 -32 13 -87 -9 -115 -27 -34 -26 -37 15 -37 28 0 37 5
50 30 16 31 20 97 7 117 -4 7 -23 16 -41 19 -31 7 -33 6 -22 -14z"/>
<path d="M3247 5104 c-13 -14 -7 -43 12 -53 24 -13 55 8 50 35 -4 19 -48 32
-62 18z"/>
<path d="M1889 5010 c21 -18 39 -20 207 -20 101 0 184 4 184 8 0 28 -30 32
-219 32 l-196 -1 24 -19z"/>
<path d="M2472 3570 c-26 -68 -26 -70 8 -70 28 0 30 2 24 28 -4 15 -10 36 -14
47 -8 19 -8 19 -18 -5z"/>
<path d="M727 3524 c-15 -16 -5 -24 29 -24 24 0 34 4 32 13 -5 13 -50 22 -61
11z"/>
<path d="M1107 3524 c-15 -16 -5 -24 29 -24 24 0 34 4 32 13 -5 13 -50 22 -61
11z"/>
<path d="M1421 3457 c-6 -8 -8 -17 -4 -20 13 -14 43 -6 53 13 9 17 8 20 -13
20 -14 0 -30 -6 -36 -13z"/>
<path d="M1823 3522 c-12 -8 -18 -31 -15 -64 2 -22 39 -33 57 -18 18 15 20 61
3 78 -14 14 -28 15 -45 4z"/>
<path d="M1316 3075 c-11 -30 -6 -45 15 -45 16 0 19 4 14 23 -10 32 -21 41
-29 22z"/>
<path d="M2441 3042 c-11 -21 3 -52 23 -52 21 0 38 27 31 50 -8 25 -41 26 -54
2z"/>
<path d="M2616 3068 c-9 -35 -8 -38 15 -38 16 0 19 4 14 23 -11 35 -22 41 -29
15z"/>
<path d="M590 3046 c0 -11 9 -16 26 -16 31 0 28 23 -4 28 -15 2 -22 -2 -22
-12z"/>
<path d="M697 3053 c-14 -13 -6 -23 18 -23 16 0 25 6 25 15 0 15 -31 21 -43 8z"/>
<path d="M1047 3054 c-4 -4 -7 -11 -7 -16 0 -13 50 -6 53 7 2 12 -36 19 -46 9z"/>
<path d="M1637 3053 c-13 -13 -7 -54 9 -60 24 -9 46 24 33 48 -10 19 -30 25
-42 12z"/>
<path d="M2337 3054 c-4 -4 -7 -11 -7 -16 0 -13 50 -6 53 7 2 12 -36 19 -46 9z"/>
<path d="M3090 3005 c0 -8 6 -15 14 -15 7 0 19 7 26 15 11 13 8 15 -14 15 -16
0 -26 -5 -26 -15z"/>
<path d="M3595 3050 c-4 -7 -3 -16 3 -22 14 -14 45 -2 40 15 -6 16 -34 21 -43
7z"/>
<path d="M3590 2964 c0 -10 7 -14 22 -12 32 5 35 28 4 28 -17 0 -26 -5 -26
-16z"/>
<path d="M3697 3054 c-11 -12 3 -24 29 -24 16 0 24 5 22 13 -5 13 -40 22 -51
11z"/>
<path d="M4085 3050 c-8 -13 3 -30 20 -30 14 0 27 24 18 34 -10 9 -31 7 -38
-4z"/>
<path d="M4080 2964 c0 -10 7 -14 22 -12 32 5 35 28 4 28 -17 0 -26 -5 -26
-16z"/>
<path d="M1511 2786 c-19 -23 -4 -58 22 -54 17 2 22 10 22 33 0 34 -24 45 -44
21z"/>
<path d="M634 2786 c-10 -26 1 -51 23 -54 14 -2 23 3 28 18 12 37 -38 71 -51
36z"/>
<path d="M1091 2786 c-19 -23 -4 -58 22 -54 17 2 22 10 22 33 0 34 -24 45 -44
21z"/>
<path d="M1257 2794 c-15 -15 -6 -24 24 -24 20 0 29 4 27 13 -5 14 -40 21 -51
11z"/>
<path d="M1400 2745 c0 -8 9 -15 19 -15 10 0 21 7 25 15 4 11 -1 15 -19 15
-16 0 -25 -6 -25 -15z"/>
<path d="M1621 2786 c-19 -23 -4 -58 22 -54 17 2 22 10 22 33 0 34 -24 45 -44
21z"/>
<path d="M1940 2781 c0 -15 6 -21 21 -21 25 0 22 33 -4 38 -12 2 -17 -3 -17
-17z"/>
<path d="M1937 2714 c-10 -11 3 -24 24 -24 10 0 19 7 19 15 0 15 -31 21 -43 9z"/>
<path d="M2047 2794 c-14 -14 -6 -24 19 -24 16 0 24 5 22 13 -5 14 -31 21 -41
11z"/>
<path d="M2257 2794 c-14 -14 -6 -24 19 -24 16 0 24 5 22 13 -5 14 -31 21 -41
11z"/>
<path d="M2420 2745 c0 -8 9 -15 20 -15 11 0 20 7 20 15 0 8 -9 15 -20 15 -11
0 -20 -7 -20 -15z"/>
<path d="M2630 2785 c-17 -21 -2 -50 26 -50 14 0 19 7 19 30 0 34 -24 45 -45
20z"/>
<path d="M1890 1044 l0 -206 89 4 c86 4 90 5 116 36 38 46 105 82 161 88 33 3
85 -3 158 -20 61 -14 112 -23 115 -20 4 3 8 77 10 165 l3 159 -326 0 -326 0 0
-206z"/>
<path d="M2715 772 c53 -126 44 -256 -25 -350 l-30 -42 49 0 c40 0 51 4 63 23
48 75 69 201 49 299 -14 65 -13 64 -70 77 -38 8 -42 7 -36 -7z"/>
<path d="M2504 676 c-52 -44 -27 -136 37 -136 24 0 67 40 70 65 5 38 -11 76
-37 85 -35 14 -39 13 -70 -14z"/>
<path d="M3176 644 c23 -55 15 -148 -18 -213 l-27 -51 43 0 c52 0 59 7 81 84
18 61 17 178 -1 196 -5 5 -28 12 -52 16 l-42 7 16 -39z"/>
<path d="M3030 610 c-39 -39 -13 -110 40 -110 23 0 60 42 60 68 0 27 -33 62
-60 62 -11 0 -29 -9 -40 -20z"/>
<path d="M3504 581 c30 -57 19 -128 -27 -178 l-20 -23 54 0 c53 0 56 1 72 35
17 36 23 140 9 162 -4 6 -21 14 -37 18 -17 4 -38 9 -48 12 -17 5 -18 3 -3 -26z"/>
<path d="M3396 524 c-20 -19 -20 -24 0 -52 27 -39 84 -23 84 23 0 43 -53 61
-84 29z"/>
<path d="M1898 513 c12 -2 30 -2 40 0 9 3 -1 5 -23 4 -22 0 -30 -2 -17 -4z"/>
<path d="M1550 422 c0 -4 13 -15 29 -25 32 -19 109 -22 385 -19 l149 2 -23 25
-23 25 -259 0 c-142 0 -258 -4 -258 -8z"/>
</g>
</svg>
